<?xml version="1.0" encoding="UTF-8" standalone="no"?><!DOCTYPE svg PUBLIC "-//W3C//DTD SVG 1.1//EN" "http://www.w3.org/Graphics/SVG/1.1/DTD/svg11.dtd"><svg width="100%" height="100%" viewBox="0 0 320 320" version="1.1" xmlns="http://www.w3.org/2000/svg" xmlns:xlink="http://www.w3.org/1999/xlink" xml:space="preserve" xmlns:serif="http://www.serif.com/" style="fill-rule:evenodd;clip-rule:evenodd;stroke-linejoin:round;stroke-miterlimit:1.41421;"><g><path d="M141.429,299.389l-111.429,-64.334l0,-128.666l74.286,-58.971l9.905,5.718l64.38,-32.525l111.429,64.334l0,128.666l-148.571,85.778Zm0,-128.667l0,0l0,0Zm0.001,-0.001l-0.001,0.001l37.142,-21.444l0,0l-37.141,21.443Z" style="fill:url(#_Linear1);stroke:#74351c;stroke-width:29.75px;"/><path d="M30,235.055l0,-128.666l148.571,-85.778l111.429,64.334l0,128.666l-111.429,-64.333l-148.571,85.777Z" style="fill:url(#_Linear2);"/><path d="M290,84.945l-111.429,-64.334l-74.285,37.529l111.428,64.333l74.286,-37.528Z" style="fill:url(#_Linear3);"/><path d="M215.714,111.751l-111.428,-64.333l-74.286,58.971l111.429,64.333l74.285,-58.971Z" style="fill:url(#_Linear4);"/><path d="M290,84.945l-148.571,85.777l0,128.667l148.571,-85.778l0,-128.666Z" style="fill:url(#_Linear5);"/><path d="M141.429,170.722l-111.429,-64.333l0,128.666l111.429,64.334l0,-128.667Z" style="fill:url(#_Linear6);"/><path d="M141.429,170.722l-111.429,-64.333l0,128.666l111.429,64.334l0,-128.667Z" style="fill:url(#_Linear7);"/><path d="M141.429,170.722l-111.429,-64.333l0,128.666l111.429,64.334l0,-128.667Z" style="fill:url(#_Linear8);"/></g><defs><linearGradient id="_Linear1" x1="0" y1="0" x2="1" y2="0" gradientUnits="userSpaceOnUse" gradientTransform="matrix(-1.89963e-13,38.719,-29.7838,-2.46952e-13,30.0004,160)"><stop offset="0" style="stop-color:#8f4223;stop-opacity:1"/><stop offset="1" style="stop-color:#441e0f;stop-opacity:1"/></linearGradient><linearGradient id="_Linear2" x1="0" y1="0" x2="1" y2="0" gradientUnits="userSpaceOnUse" gradientTransform="matrix(-1.89963e-13,29.7838,-29.7838,-1.89963e-13,30.0004,127.833)"><stop offset="0" style="stop-color:#8f4223;stop-opacity:1"/><stop offset="1" style="stop-color:#441e0f;stop-opacity:1"/></linearGradient><linearGradient id="_Linear3" x1="0" y1="0" x2="1" y2="0" gradientUnits="userSpaceOnUse" gradientTransform="matrix(1.64136e-15,26.8055,-26.8055,1.64136e-15,201.785,55.4588)"><stop offset="0" style="stop-color:#cc653c;stop-opacity:1"/><stop offset="1" style="stop-color:#f28152;stop-opacity:1"/></linearGradient><linearGradient id="_Linear4" x1="0" y1="0" x2="1" y2="0" gradientUnits="userSpaceOnUse" gradientTransform="matrix(-23.2142,-152.791,152.791,-23.2142,122.858,224.333)"><stop offset="0" style="stop-color:#ffded0;stop-opacity:1"/><stop offset="1" style="stop-color:#ffaa86;stop-opacity:1"/></linearGradient><linearGradient id="_Linear5" x1="0" y1="0" x2="1" y2="0" gradientUnits="userSpaceOnUse" gradientTransform="matrix(51.0712,40.2082,-40.2082,51.0712,206.429,176.084)"><stop offset="0" style="stop-color:#f28152;stop-opacity:1"/><stop offset="1" style="stop-color:#cc653c;stop-opacity:1"/></linearGradient><linearGradient id="_Linear6" x1="0" y1="0" x2="1" y2="0" gradientUnits="userSpaceOnUse" gradientTransform="matrix(-13.9285,109.902,-109.902,-13.9285,81.0712,151.958)"><stop offset="0" style="stop-color:#ff9261;stop-opacity:1"/><stop offset="1" style="stop-color:#c15e2d;stop-opacity:1"/></linearGradient><linearGradient id="_Linear7" x1="0" y1="0" x2="1" y2="0" gradientUnits="userSpaceOnUse" gradientTransform="matrix(-32.4999,24.1249,-24.1249,-32.4999,127.5,189.486)"><stop offset="0" style="stop-color:#fe9b76;stop-opacity:1"/><stop offset="1" style="stop-color:#fe9b76;stop-opacity:0"/></linearGradient><linearGradient id="_Linear8" x1="0" y1="0" x2="1" y2="0" gradientUnits="userSpaceOnUse" gradientTransform="matrix(-13.4405,1.64598e-15,-1.64598e-15,-13.4405,146.071,210.931)"><stop offset="0" style="stop-color:#ffaa86;stop-opacity:0"/><stop offset="0.5" style="stop-color:#ffaa86;stop-opacity:0.501961"/><stop offset="1" style="stop-color:#fe9b76;stop-opacity:0"/></linearGradient></defs></svg>